<svg id="svg" version="1.1"
    xmlns="http://www.w3.org/2000/svg"
    xmlns:xlink="http://www.w3.org/1999/xlink" width="400" height="400" viewBox="0, 0, 400,400">
    <g id="svgg">
        <path id="path0" d="M57.309 71.350 C 45.836 74.264,31.117 90.893,22.389 110.800 C 11.599 135.413,10.852 169.184,20.390 201.200 C 24.825 216.085,31.922 232.184,36.510 237.764 L 37.466 238.928 41.474 238.260 C 46.366 237.445,54.183 237.336,55.773 238.060 C 57.491 238.843,57.093 242.010,54.455 248.540 C 50.779 257.641,51.265 260.666,56.656 262.233 C 59.813 263.151,62.724 265.293,69.395 271.608 C 76.083 277.940,80.873 281.361,87.231 284.350 C 91.164 286.199,101.005 289.600,102.423 289.600 C 102.828 289.600,103.243 290.166,103.523 291.101 C 110.198 313.381,137.535 326.022,186.400 329.425 C 203.030 330.583,211.634 330.350,233.000 328.161 C 273.098 324.053,291.616 314.287,298.997 293.355 L 299.719 291.309 302.759 291.068 C 315.391 290.066,337.104 278.555,344.221 269.087 C 349.395 262.204,350.077 258.553,347.389 252.125 C 342.713 240.944,343.280 239.261,351.271 240.594 C 363.179 242.580,365.989 240.583,370.396 227.000 C 371.110 224.800,372.683 220.505,373.892 217.456 C 396.250 161.058,386.187 101.517,349.895 75.481 C 336.828 66.106,330.599 71.124,325.419 95.201 C 320.649 117.365,319.297 135.754,320.069 167.949 L 320.456 184.098 316.433 192.149 C 311.683 201.657,309.015 209.643,303.657 230.400 C 302.964 233.087,302.855 233.275,302.616 232.200 C 296.070 202.817,285.983 183.873,273.569 177.651 C 272.342 177.036,270.002 175.420,268.369 174.060 C 252.513 160.851,228.158 151.600,209.241 151.600 C 208.144 151.600,207.136 151.420,207.000 151.200 C 206.858 150.970,207.231 150.796,207.876 150.791 C 209.428 150.779,212.245 149.436,212.768 148.460 C 214.411 145.389,211.756 143.265,205.832 142.911 L 202.139 142.691 203.070 141.687 C 204.192 140.476,204.299 138.588,203.277 138.041 C 199.770 136.164,193.771 138.079,186.603 143.364 L 183.005 146.015 182.552 143.083 C 181.417 135.741,178.637 134.589,176.562 140.600 C 173.233 150.244,170.580 152.960,158.200 159.400 C 149.992 163.670,145.361 166.620,139.587 171.259 C 136.888 173.426,134.372 175.200,133.994 175.200 C 132.737 175.200,127.683 178.003,125.659 179.823 C 118.567 186.199,105.218 211.515,100.902 226.772 L 99.405 232.064 98.920 229.732 C 98.654 228.449,97.970 224.160,97.400 220.200 C 94.468 199.796,90.855 187.463,86.497 182.975 C 85.125 181.563,85.102 181.482,85.345 179.066 C 89.404 138.744,86.977 107.119,78.108 84.800 C 74.063 74.622,65.706 69.218,57.309 71.350 M65.320 76.574 C 70.477 79.071,73.719 85.350,77.378 99.932 C 82.838 121.687,83.862 143.220,80.995 176.000 C 78.430 205.331,77.933 215.480,78.453 227.876 C 79.099 243.273,82.153 257.120,87.060 266.900 C 87.584 267.945,87.946 268.800,87.863 268.800 C 87.780 268.800,86.177 268.091,84.302 267.225 C 78.582 264.582,66.123 260.716,57.728 258.979 C 55.044 258.424,55.099 256.915,58.055 250.044 C 63.055 238.421,62.117 234.276,54.236 233.180 C 50.744 232.694,43.123 233.239,40.508 234.162 L 38.923 234.721 37.227 231.315 C 13.532 183.735,12.392 131.843,34.308 98.400 C 45.929 80.666,57.276 72.681,65.320 76.574 M345.722 78.891 C 355.751 85.564,365.249 97.963,371.746 112.858 C 384.232 141.486,383.390 178.191,369.390 215.600 C 368.361 218.350,366.824 222.901,365.976 225.714 C 362.363 237.684,361.208 238.693,352.603 237.392 C 344.198 236.121,341.181 237.683,341.209 243.287 C 341.216 244.865,341.642 246.255,344.553 254.200 C 346.901 260.608,346.161 261.328,334.660 263.828 C 325.908 265.730,316.374 269.178,311.708 272.130 C 310.777 272.718,309.932 273.200,309.830 273.200 C 309.728 273.200,310.818 271.355,312.252 269.100 C 319.259 258.082,323.603 244.261,325.433 227.168 C 326.057 221.339,326.051 187.019,325.425 181.400 C 325.040 177.944,324.883 143.379,325.220 136.417 C 326.213 115.931,330.819 89.061,334.626 81.548 C 337.617 75.645,339.991 75.077,345.722 78.891 M194.442 143.560 C 191.401 146.401,192.940 147.378,199.732 146.918 C 210.076 146.218,210.663 146.969,200.874 148.378 C 192.385 149.600,191.970 150.852,198.807 154.608 C 200.673 155.633,201.840 156.353,201.400 156.208 C 198.529 155.263,192.800 154.853,192.800 155.592 C 192.800 155.808,193.295 156.105,193.900 156.251 C 194.505 156.398,196.800 157.316,199.000 158.292 C 206.102 161.442,208.909 162.459,209.847 162.224 C 211.751 161.746,211.319 159.530,208.751 156.605 C 207.298 154.950,207.065 155.002,213.258 155.599 C 227.613 156.982,237.685 159.836,250.031 166.017 C 254.837 168.423,263.611 173.847,264.176 174.761 C 264.291 174.947,263.533 175.115,262.492 175.134 C 258.239 175.213,256.400 175.852,256.400 177.249 C 256.400 178.090,256.535 178.113,260.800 178.011 C 269.346 177.805,277.253 183.064,284.169 193.553 C 287.226 198.189,287.472 198.880,285.100 196.170 C 278.624 188.772,273.891 186.256,266.381 186.221 C 253.647 186.163,246.223 196.073,242.428 218.200 C 231.743 280.481,236.262 297.368,263.579 297.243 C 277.622 297.179,288.430 289.895,297.154 274.617 C 299.464 270.572,299.512 270.687,298.389 277.570 C 296.120 291.473,293.719 298.630,290.163 302.084 C 289.418 302.808,288.807 303.755,288.804 304.189 C 288.796 305.755,279.393 313.591,279.049 312.319 C 278.972 312.033,278.700 310.924,278.444 309.853 L 277.978 307.906 279.889 305.853 C 280.940 304.724,282.070 303.800,282.400 303.800 C 284.308 303.800,284.480 302.292,282.700 301.167 C 281.315 300.292,276.356 300.284,275.485 301.155 C 274.629 302.011,275.542 302.800,277.387 302.800 C 279.590 302.800,279.637 303.112,277.700 304.860 C 272.640 309.426,273.351 309.348,236.717 309.376 L 206.033 309.400 205.427 307.800 C 205.094 306.920,204.771 305.575,204.710 304.812 L 204.600 303.423 206.988 303.115 C 217.493 301.759,228.636 292.703,233.440 281.617 C 245.261 254.340,216.660 223.935,189.095 234.475 C 169.949 241.795,160.866 264.404,169.601 283.000 C 174.378 293.169,186.795 301.826,198.400 303.077 L 201.400 303.400 201.651 305.800 C 201.789 307.120,202.028 308.502,202.182 308.871 C 202.544 309.734,201.555 309.865,190.646 310.395 C 167.301 311.528,153.136 310.439,139.289 306.447 C 129.417 303.601,121.722 299.249,126.486 299.206 C 127.518 299.197,128.086 297.870,127.437 296.983 C 126.795 296.104,119.322 296.703,117.194 297.803 C 114.728 299.078,115.977 300.808,118.839 300.081 C 120.283 299.715,120.429 299.742,120.181 300.335 C 119.524 301.910,118.800 304.599,118.800 305.464 C 118.800 306.885,118.294 306.625,115.780 303.909 C 109.378 296.994,105.309 286.017,103.803 271.600 L 103.531 269.000 105.308 272.600 C 114.516 291.257,124.475 296.814,143.000 293.630 C 159.380 290.815,161.447 288.175,163.257 267.756 C 165.919 237.721,163.306 206.981,156.963 193.714 C 151.431 182.142,138.668 179.440,127.053 187.382 C 124.710 188.984,124.933 188.440,127.969 185.145 C 132.458 180.273,136.562 178.434,143.800 178.053 C 147.688 177.848,148.600 177.686,148.600 177.200 C 148.600 176.386,144.576 174.400,142.928 174.400 C 141.042 174.400,141.241 174.081,144.713 171.548 C 149.411 168.121,151.992 166.562,159.384 162.683 C 171.857 156.138,177.878 150.332,178.876 143.888 C 178.917 143.620,179.052 145.001,179.176 146.958 C 179.524 152.484,180.316 152.540,187.261 147.530 C 193.692 142.890,197.286 140.904,194.442 143.560 M146.544 187.213 C 149.852 188.451,152.487 191.041,154.401 194.935 C 159.857 206.041,162.630 233.348,161.058 260.500 C 160.725 266.252,160.000 268.709,160.000 264.085 C 160.000 258.324,157.745 245.988,155.342 238.600 C 147.202 213.579,118.635 217.361,114.172 244.051 C 108.442 278.322,135.030 299.484,157.354 278.421 L 159.708 276.200 159.435 278.200 C 158.337 286.255,154.493 289.033,141.651 291.049 C 125.041 293.658,115.357 287.744,106.811 269.772 C 98.478 252.249,101.997 229.897,117.610 201.181 L 120.832 195.256 124.916 192.480 C 134.221 186.157,139.975 184.756,146.544 187.213 M86.101 189.500 C 88.390 194.713,90.767 204.714,93.184 219.301 C 94.504 227.268,95.722 232.044,97.404 235.848 C 98.431 238.169,98.435 238.219,97.963 242.793 C 97.100 251.157,97.877 263.852,100.030 276.549 C 100.995 282.237,101.043 282.150,98.401 279.510 C 84.521 265.644,79.991 239.266,83.869 194.900 C 84.616 186.359,84.667 186.235,86.101 189.500 M274.200 191.165 C 282.255 195.045,292.503 208.352,295.573 218.918 C 299.317 231.803,301.089 246.884,300.400 260.013 C 300.180 264.210,299.300 266.137,293.663 274.764 C 283.711 289.996,270.736 296.450,256.200 293.398 C 239.429 289.877,236.892 275.785,244.246 227.000 C 246.790 210.131,248.162 204.751,251.385 199.010 C 256.591 189.738,265.137 186.799,274.200 191.165 M321.375 206.800 C 322.182 235.065,318.043 253.691,307.021 271.400 C 303.649 276.818,303.430 277.059,303.736 275.000 C 304.914 267.072,305.230 253.663,304.407 246.443 C 304.055 243.347,304.077 242.573,304.537 242.043 C 305.905 240.467,308.149 233.303,312.757 215.800 C 315.653 204.796,317.090 200.286,319.097 195.893 L 320.600 192.603 320.854 195.002 C 320.993 196.321,321.228 201.630,321.375 206.800 M195.000 220.157 C 190.041 221.717,190.139 224.311,195.108 223.024 C 198.111 222.246,203.046 222.237,208.000 223.000 C 216.991 224.386,214.257 222.319,204.274 220.183 C 200.994 219.482,197.181 219.471,195.000 220.157 M261.400 224.561 C 255.045 226.576,251.110 231.260,248.261 240.200 C 244.252 252.780,243.780 254.959,243.202 263.556 C 242.986 266.770,242.721 270.730,242.612 272.356 L 242.414 275.312 247.107 279.982 C 254.257 287.097,257.997 289.001,264.283 288.728 C 284.525 287.850,296.923 244.421,281.111 229.782 C 275.869 224.929,267.353 222.673,261.400 224.561 M143.793 226.179 C 148.588 228.525,149.926 231.672,147.969 236.000 C 145.316 241.867,139.504 242.729,134.925 237.935 C 131.820 234.685,132.118 230.267,135.665 226.953 C 138.347 224.447,139.943 224.295,143.793 226.179 M191.800 227.939 C 187.515 229.057,186.000 229.811,186.000 230.826 C 186.000 231.536,186.163 231.646,186.900 231.431 C 195.693 228.871,207.101 229.019,215.926 231.807 C 218.428 232.598,218.884 232.646,219.079 232.139 C 220.234 229.128,199.485 225.933,191.800 227.939 M263.797 227.641 C 270.406 229.305,271.578 239.750,265.503 242.849 C 256.452 247.467,250.048 233.758,258.801 228.500 C 261.222 227.045,261.347 227.024,263.797 227.641 M208.765 237.279 C 224.779 242.216,235.930 260.918,231.472 275.359 L 230.743 277.718 229.974 276.454 C 228.772 274.476,226.815 273.724,224.488 274.344 C 220.683 275.359,219.442 277.793,219.055 285.000 C 218.505 295.259,213.640 299.600,202.695 299.600 C 191.657 299.600,184.962 294.258,182.846 283.762 C 181.174 275.469,175.903 271.640,172.337 276.128 C 170.356 278.622,169.402 264.747,171.055 257.478 C 174.156 243.843,194.579 232.904,208.765 237.279 M76.798 267.467 C 87.235 271.012,89.815 272.547,93.954 277.678 C 95.138 279.146,97.298 281.302,98.754 282.468 C 103.594 286.348,103.121 286.389,94.388 282.841 C 83.531 278.430,78.170 275.062,69.969 267.499 L 66.606 264.397 69.603 265.219 C 71.251 265.671,74.489 266.683,76.798 267.467 M340.575 268.037 C 334.213 274.734,312.674 285.861,302.306 287.806 L 300.832 288.083 301.217 286.742 C 301.428 286.004,301.787 285.338,302.014 285.262 C 302.241 285.186,302.967 284.053,303.628 282.744 C 306.356 277.340,319.494 271.521,339.000 267.075 C 339.440 266.975,340.239 266.872,340.775 266.846 L 341.750 266.800 340.575 268.037 M129.220 306.712 C 144.393 313.939,164.687 315.931,199.000 313.558 C 208.004 312.936,217.742 312.645,238.000 312.393 C 267.546 312.026,270.130 311.846,274.846 309.832 C 275.415 309.589,276.467 314.205,275.925 314.567 C 264.454 322.233,219.080 327.936,186.600 325.793 C 160.858 324.095,142.688 319.997,127.913 312.556 C 121.755 309.455,120.666 307.561,122.408 302.979 L 122.816 301.906 124.728 303.694 C 125.780 304.678,127.802 306.036,129.220 306.712 M227.600 318.370 C 226.863 318.796,222.484 319.459,218.200 319.795 C 216.440 319.933,211.580 320.414,207.400 320.863 C 198.016 321.871,190.154 321.716,184.400 320.411 C 178.269 319.021,177.200 318.944,177.200 319.895 C 177.200 321.477,186.018 324.075,193.956 324.831 C 205.310 325.912,229.600 321.661,229.600 318.592 C 229.600 317.943,228.544 317.826,227.600 318.370 " stroke="none" fill="#080808" fill-rule="evenodd"></path>
    </g>
</svg>